<svg width="48" height="48" viewBox="0 0 48 48" fill="none" xmlns="http://www.w3.org/2000/svg">
<g clip-path="url(#clip0_3291_257)">
<path d="M16.86 7H31.14C36.58 7 41 11.42 41 16.86V31.14C41 33.7551 39.9612 36.263 38.1121 38.1121C36.263 39.9612 33.7551 41 31.14 41H16.86C11.42 41 7 36.58 7 31.14V16.86C7 14.245 8.03882 11.737 9.88793 9.88793C11.737 8.03882 14.245 7 16.86 7ZM16.52 10.4C14.8969 10.4 13.3402 11.0448 12.1925 12.1925C11.0448 13.3402 10.4 14.8969 10.4 16.52V31.48C10.4 34.863 13.137 37.6 16.52 37.6H31.48C33.1032 37.6 34.6598 36.9553 35.8075 35.8075C36.9553 34.6598 37.6 33.1032 37.6 31.48V16.52C37.6 13.137 34.863 10.4 31.48 10.4H16.52ZM32.925 12.95C33.4886 12.95 34.0291 13.1739 34.4276 13.5724C34.8262 13.9709 35.05 14.5114 35.05 15.075C35.05 15.6386 34.8262 16.1791 34.4276 16.5776C34.0291 16.9761 33.4886 17.2 32.925 17.2C32.3615 17.2 31.8209 16.9761 31.4224 16.5776C31.0239 16.1791 30.8 15.6386 30.8 15.075C30.8 14.5114 31.0239 13.9709 31.4224 13.5724C31.8209 13.1739 32.3615 12.95 32.925 12.95ZM24 15.5C26.2544 15.5 28.4164 16.3955 30.0104 17.9896C31.6045 19.5837 32.5 21.7457 32.5 24C32.5 26.2544 31.6045 28.4164 30.0104 30.0104C28.4164 31.6045 26.2544 32.5 24 32.5C21.7457 32.5 19.5837 31.6045 17.9896 30.0104C16.3955 28.4164 15.5 26.2544 15.5 24C15.5 21.7457 16.3955 19.5837 17.9896 17.9896C19.5837 16.3955 21.7457 15.5 24 15.5ZM24 18.9C22.6474 18.9 21.3502 19.4373 20.3938 20.3938C19.4373 21.3502 18.9 22.6474 18.9 24C18.9 25.3526 19.4373 26.6498 20.3938 27.6063C21.3502 28.5627 22.6474 29.1 24 29.1C25.3526 29.1 26.6498 28.5627 27.6063 27.6063C28.5627 26.6498 29.1 25.3526 29.1 24C29.1 22.6474 28.5627 21.3502 27.6063 20.3938C26.6498 19.4373 25.3526 18.9 24 18.9Z" fill="black"/>
</g>
<defs>
<clipPath id="clip0_3291_257">
<rect width="48" height="48" fill="white"/>
</clipPath>
</defs>
</svg>
