<svg width="48" height="48" viewBox="0 0 48 48" fill="none" xmlns="http://www.w3.org/2000/svg">
<g clip-path="url(#clip0_3291_265)">
<path fill-rule="evenodd" clip-rule="evenodd" d="M24.2726 10.3683C25.9242 8.7689 28.1384 7.88283 30.4375 7.90128C32.7366 7.91973 34.9362 8.84122 36.562 10.467C38.1877 12.0927 39.1092 14.2924 39.1276 16.5914C39.1461 18.8905 38.26 21.1047 36.6606 22.7563L36.6367 22.7801L32.4829 26.9358C31.5946 27.824 30.5257 28.5109 29.3486 28.9498C28.1716 29.3887 26.9139 29.5693 25.6609 29.4795C24.4079 29.3898 23.1888 29.0316 22.0864 28.4294C20.9839 27.8271 20.0238 26.9949 19.2712 25.989C18.9912 25.5989 18.8754 25.1144 18.9486 24.6398C19.0217 24.1652 19.2781 23.7381 19.6626 23.4504C20.0472 23.1627 20.5292 23.0372 21.0052 23.1009C21.4812 23.1646 21.9132 23.4124 22.2086 23.7911C22.6456 24.3761 23.2035 24.8602 23.8442 25.2105C24.4849 25.5608 25.1935 25.7691 25.9219 25.8214C26.6503 25.8736 27.3813 25.7684 28.0655 25.5131C28.7496 25.2577 29.3708 24.8582 29.8868 24.3415L34.0314 20.1969C34.9379 19.2323 35.4333 17.9528 35.4126 16.6292C35.3919 15.3057 34.8568 14.0423 33.9206 13.1065C32.9844 12.1708 31.7206 11.6363 30.3971 11.6163C29.0736 11.5963 27.7943 12.0923 26.8302 12.9993L24.4579 15.3587C24.111 15.6921 23.647 15.8758 23.1659 15.8703C22.6847 15.8649 22.225 15.6706 21.8858 15.3294C21.5465 14.9882 21.3549 14.5274 21.3521 14.0463C21.3493 13.5652 21.5357 13.1022 21.871 12.7571L24.2524 10.3885L24.2726 10.3683ZM17.6732 18.0594C19.4472 17.3979 21.3877 17.3289 23.2042 17.8628C25.0207 18.3966 26.6154 19.5045 27.7494 21.0207C28.0294 21.4108 28.1452 21.8953 28.072 22.3699C27.9989 22.8445 27.7425 23.2716 27.358 23.5593C26.9735 23.847 26.4915 23.9725 26.0154 23.9088C25.5394 23.8451 25.1074 23.5973 24.812 23.2186C24.3748 22.6339 23.8169 22.15 23.1762 21.7999C22.5355 21.4498 21.8269 21.2415 21.0986 21.1893C20.3704 21.1371 19.6394 21.2422 18.9553 21.4973C18.2712 21.7525 17.65 22.1518 17.1338 22.6682L12.991 26.8128C12.0706 27.7743 11.5633 29.0579 11.5777 30.3888C11.5921 31.7197 12.1271 32.992 13.0681 33.9333C14.0092 34.8745 15.2814 35.4099 16.6123 35.4246C17.9431 35.4394 19.2269 34.9324 20.1886 34.0122L22.5462 31.6546C22.7154 31.4794 22.9179 31.3396 23.1417 31.2435C23.3655 31.1473 23.6063 31.0967 23.8499 31.0946C24.0935 31.0925 24.3351 31.1389 24.5606 31.2311C24.7861 31.3234 24.9909 31.4596 25.1632 31.6319C25.3355 31.8042 25.4717 32.009 25.5639 32.2345C25.6562 32.46 25.7026 32.7015 25.7005 32.9452C25.6984 33.1888 25.6478 33.4295 25.5516 33.6534C25.4555 33.8772 25.3157 34.0797 25.1404 34.2489L22.7718 36.6175L22.7498 36.6414C21.0982 38.2408 18.884 39.1269 16.585 39.1084C14.2859 39.09 12.0862 38.1685 10.4605 36.5427C8.83475 34.917 7.91326 32.7173 7.89481 30.4183C7.87636 28.1192 8.76243 25.905 10.3619 24.2534L10.3839 24.2296L14.5395 20.0739C15.4285 19.1867 16.4969 18.4998 17.6732 18.0594Z" fill="black"/>
</g>
<defs>
<clipPath id="clip0_3291_265">
<rect width="48" height="48" fill="white"/>
</clipPath>
</defs>
</svg>
